<?xml version="1.0" standalone="no"?>
<!DOCTYPE svg PUBLIC "-//W3C//DTD SVG 20010904//EN"
 "http://www.w3.org/TR/2001/REC-SVG-20010904/DTD/svg10.dtd">
<svg version="1.0" xmlns="http://www.w3.org/2000/svg"
 width="634.000000pt" height="634.000000pt" viewBox="0 0 634.000000 634.000000"
 preserveAspectRatio="xMidYMid meet">
<metadata>
Created by potrace 1.11, written by Peter Selinger 2001-2013
</metadata>
<g transform="translate(0.000000,634.000000) scale(0.100000,-0.100000)"
fill="#000000" stroke="none">
<path d="M3675 4893 c-59 -18 -173 -91 -210 -135 -35 -42 -24 -51 96 -82 108
-27 212 -76 301 -141 121 -90 165 -46 118 118 -21 76 -55 139 -102 193 -58 65
-107 77 -203 47z"/>
<path d="M2226 4835 c-49 -17 -73 -40 -97 -93 -57 -124 -58 -381 -2 -399 7 -3
27 12 45 32 85 94 254 202 353 226 45 10 75 30 75 50 0 4 -17 25 -37 46 -113
115 -246 169 -337 138z"/>
<path d="M3408 4319 c-87 -45 -105 -170 -44 -304 155 -339 582 -544 686 -329
56 114 -21 306 -185 469 -152 150 -348 220 -457 164z"/>
<path d="M2620 4320 c-247 -59 -508 -357 -494 -565 6 -92 70 -147 173 -148
259 -1 600 337 578 574 -6 68 -27 104 -78 130 -40 20 -115 24 -179 9z"/>
<path d="M4181 4262 c-13 -24 2 -89 34 -153 66 -129 77 -177 80 -358 2 -126
-13 -252 -41 -351 -26 -90 -156 -257 -277 -357 -139 -115 -358 -211 -542 -238
-22 -3 -47 -7 -55 -10 -8 -2 -46 -6 -85 -10 -197 -17 -207 -19 -256 -41 -48
-21 -71 -64 -71 -128 0 -155 173 -285 442 -330 19 -3 45 -8 58 -11 124 -24
437 -24 572 0 373 65 594 241 746 594 47 107 64 193 69 336 6 163 -7 272 -51
435 -29 105 -46 144 -112 243 -153 233 -465 464 -511 379z"/>
<path d="M1855 4131 c-105 -61 -185 -171 -269 -371 -40 -94 -89 -244 -100
-305 -43 -238 -23 -436 61 -615 29 -60 55 -94 132 -170 125 -125 140 -136 255
-196 228 -119 555 -102 739 39 43 33 77 93 77 135 0 42 -37 74 -148 128 -187
90 -238 117 -337 175 -147 88 -206 149 -270 277 -98 198 -117 481 -53 767 25
113 27 137 15 153 -15 19 -48 14 -102 -17z"/>
<path d="M2221 1957 c-8 -10 -10 -83 -8 -240 l4 -226 -34 -12 c-66 -21 -123
14 -123 77 0 60 24 92 93 120 24 11 39 25 43 41 20 79 -147 76 -203 -3 -102
-144 22 -323 185 -267 38 12 44 12 58 -2 8 -8 20 -15 25 -15 15 0 23 30 11 42
-7 7 -7 19 -1 35 5 14 6 29 3 34 -5 9 -5 227 0 340 4 77 -22 113 -53 76z"/>
<path d="M656 1939 c-23 -18 -35 -60 -51 -176 -3 -18 -7 -45 -9 -60 -3 -16
-10 -68 -17 -118 -6 -49 -13 -97 -14 -105 -7 -43 38 -75 83 -59 24 8 34 21 46
57 9 26 18 63 21 82 15 96 16 96 60 12 43 -85 56 -102 79 -102 26 0 52 46 87
154 18 58 37 106 41 106 5 0 8 -17 9 -37 0 -21 2 -47 4 -58 2 -11 7 -40 10
-65 15 -128 26 -147 71 -130 21 8 38 35 30 48 -2 4 -7 29 -10 55 -4 26 -11 71
-17 100 -6 29 -12 61 -13 72 -2 11 -6 34 -9 50 -4 17 -8 41 -11 55 -13 79 -19
99 -33 104 -17 7 -53 -10 -53 -25 0 -12 -55 -162 -86 -234 l-17 -40 -49 140
c-27 77 -51 148 -54 157 -6 16 -28 28 -61 34 -7 1 -23 -6 -37 -17z"/>
<path d="M3773 1947 c-23 -10 -32 -26 -39 -67 -2 -14 -6 -36 -8 -50 -3 -13 -8
-42 -11 -65 -4 -22 -8 -51 -10 -65 -2 -14 -6 -45 -10 -70 -3 -25 -8 -56 -10
-70 -16 -89 -15 -107 2 -122 23 -20 41 -24 74 -15 31 8 42 31 65 145 l18 83
43 -85 c25 -46 51 -87 60 -90 33 -13 60 21 93 116 17 51 37 107 45 123 l13 30
2 -40 c1 -22 3 -49 5 -60 2 -11 9 -59 15 -108 13 -93 26 -112 66 -97 28 11 34
28 24 81 -5 24 -11 62 -14 84 -4 22 -18 102 -33 177 -22 113 -30 139 -46 144
-27 9 -34 -2 -73 -107 -80 -216 -70 -213 -127 -47 -26 79 -56 151 -66 161 -21
22 -50 27 -78 14z"/>
<path d="M3100 1928 c-32 -35 -30 -73 6 -105 33 -30 65 -29 98 4 22 22 26 33
22 58 -12 61 -85 86 -126 43z"/>
<path d="M4792 1867 c-6 -7 -12 -32 -13 -55 -3 -40 -5 -43 -40 -52 -48 -13
-64 -52 -42 -99 14 -28 35 -37 74 -33 4 1 10 -21 13 -49 13 -96 57 -159 111
-159 33 0 95 35 103 57 6 20 -27 28 -41 10 -7 -9 -24 -21 -39 -26 -40 -15 -53
8 -54 96 -1 72 -1 73 25 74 114 2 161 23 161 73 0 51 -26 67 -107 68 l-68 1
-1 38 c-1 21 -7 45 -14 54 -15 18 -54 20 -68 2z"/>
<path d="M1587 1771 c-9 -11 -13 -43 -12 -101 4 -177 18 -260 44 -260 29 1 38
33 45 163 1 37 6 70 9 73 11 11 113 7 135 -5 35 -19 46 -51 45 -133 -1 -61 2
-78 13 -78 10 0 14 12 14 38 0 21 6 60 13 87 26 101 7 156 -66 194 -38 19 -63
24 -110 23 -33 -1 -66 3 -71 7 -17 13 -45 9 -59 -8z"/>
<path d="M3289 1773 c-17 -20 -18 -95 -5 -253 7 -77 17 -110 35 -110 29 1 39
34 45 163 1 37 5 69 7 72 9 8 74 9 112 2 55 -12 71 -42 70 -138 0 -60 3 -79
13 -79 9 0 14 13 15 38 0 20 2 44 4 52 2 8 6 29 10 45 29 133 -28 200 -180
208 -39 3 -79 7 -90 11 -14 5 -26 1 -36 -11z"/>
<path d="M5643 1780 c-85 -13 -164 -100 -142 -158 13 -34 35 -49 94 -62 103
-24 125 -31 125 -40 0 -12 -55 -24 -114 -25 -60 -1 -81 -22 -53 -53 41 -45
217 14 217 73 0 31 -26 47 -112 70 -53 13 -68 21 -68 35 0 22 28 33 114 45 34
5 46 15 50 41 8 49 -45 84 -111 74z"/>
<path d="M1295 1768 c-86 -24 -142 -148 -107 -239 13 -32 74 -87 108 -95 36
-9 90 2 123 25 25 18 30 19 41 6 17 -20 37 -19 48 3 12 22 15 178 4 217 -10
37 -37 44 -52 15 -7 -12 -13 -65 -14 -118 -2 -93 -3 -96 -26 -102 -54 -15
-115 12 -126 55 -16 62 26 135 77 135 52 0 63 52 16 82 -32 21 -58 26 -92 16z"/>
<path d="M2445 1768 c-65 -18 -117 -95 -117 -172 0 -130 140 -209 242 -136 26
19 31 19 36 6 10 -26 43 -19 55 12 17 43 8 218 -13 238 -15 15 -17 14 -33 -10
-12 -19 -18 -51 -19 -121 -2 -52 -5 -97 -7 -99 -12 -12 -69 -12 -96 -1 -41 17
-57 48 -50 97 7 49 41 88 78 88 52 0 63 52 16 82 -32 21 -58 26 -92 16z"/>
<path d="M2734 1758 c-6 -19 -7 -224 -1 -292 1 -10 12 -25 25 -34 21 -14 25
-14 39 1 13 13 16 39 15 136 l0 121 32 0 c18 0 53 -6 77 -12 73 -21 99 -14 99
27 0 50 -87 76 -162 49 -35 -12 -39 -11 -48 6 -16 29 -66 27 -76 -2z"/>
<path d="M4405 1768 c-77 -22 -122 -103 -116 -210 0 -15 18 -45 45 -74 42 -47
44 -48 104 -49 47 0 67 5 90 22 26 19 32 20 42 8 17 -20 37 -19 48 3 13 24 15
192 3 225 -6 15 -17 27 -26 27 -24 0 -37 -48 -39 -142 -1 -86 -2 -88 -28 -97
-37 -13 -94 4 -114 35 -36 54 8 154 67 154 14 0 33 7 40 16 33 40 -52 100
-116 82z"/>
<path d="M5209 1760 c-39 -21 -64 -52 -75 -96 -4 -16 -13 -38 -20 -49 -11 -18
-9 -26 22 -72 58 -87 118 -116 209 -101 57 9 80 30 64 60 -5 10 -14 16 -18 13
-5 -2 -31 -7 -58 -11 -49 -6 -123 14 -123 33 0 4 26 9 58 11 112 6 182 42 182
94 0 33 -45 95 -83 114 -46 24 -115 26 -158 4z m149 -50 c33 -21 41 -38 20
-45 -7 -2 -52 -6 -100 -9 -91 -5 -103 1 -75 36 33 42 102 50 155 18z"/>
<path d="M3121 1733 c-5 -10 -8 -81 -7 -158 l1 -140 26 -3 c18 -2 29 3 33 15
23 57 26 263 6 288 -17 20 -47 19 -59 -2z"/>
</g>
</svg>
